<svg preserveAspectRatio="none" width="100%" height="100%" overflow="visible" style="display: block;" viewBox="0 0 26.7136 29.3333" fill="none" xmlns="http://www.w3.org/2000/svg">
<path id="Vector" d="M13.6501 1.33333H13.0634C12.3562 1.33333 11.6779 1.61428 11.1778 2.11438C10.6777 2.61448 10.3968 3.29276 10.3968 4V4.24C10.3963 4.70763 10.2729 5.16692 10.0388 5.57178C9.8048 5.97665 9.46843 6.31285 9.06344 6.54667L8.49011 6.88C8.08473 7.11405 7.62487 7.23727 7.15678 7.23727C6.68868 7.23727 6.22883 7.11405 5.82344 6.88L5.62344 6.77333C5.01153 6.42035 4.28456 6.32459 3.60211 6.50708C2.91967 6.68956 2.33751 7.13538 1.98344 7.74667L1.69011 8.25333C1.33713 8.86525 1.24137 9.59222 1.42385 10.2747C1.60634 10.9571 2.05216 11.5393 2.66344 11.8933L2.86344 12.0267C3.26648 12.2593 3.6016 12.5935 3.83551 12.9958C4.06942 13.3981 4.19397 13.8546 4.19678 14.32V15C4.19864 15.4699 4.07631 15.9319 3.84217 16.3393C3.60803 16.7468 3.27039 17.0851 2.86344 17.32L2.66344 17.44C2.05216 17.7941 1.60634 18.3762 1.42385 19.0587C1.24137 19.7411 1.33713 20.4681 1.69011 21.08L1.98344 21.5867C2.33751 22.198 2.91967 22.6438 3.60211 22.8263C4.28456 23.0087 5.01153 22.913 5.62344 22.56L5.82344 22.4533C6.22883 22.2193 6.68868 22.0961 7.15678 22.0961C7.62487 22.0961 8.08473 22.2193 8.49011 22.4533L9.06344 22.7867C9.46843 23.0205 9.8048 23.3567 10.0388 23.7616C10.2729 24.1664 10.3963 24.6257 10.3968 25.0933V25.3333C10.3968 26.0406 10.6777 26.7189 11.1778 27.219C11.6779 27.719 12.3562 28 13.0634 28H13.6501C14.3574 28 15.0356 27.719 15.5357 27.219C16.0358 26.7189 16.3168 26.0406 16.3168 25.3333V25.0933C16.3173 24.6257 16.4407 24.1664 16.6747 23.7616C16.9088 23.3567 17.2451 23.0205 17.6501 22.7867L18.2234 22.4533C18.6288 22.2193 19.0887 22.0961 19.5568 22.0961C20.0249 22.0961 20.4847 22.2193 20.8901 22.4533L21.0901 22.56C21.702 22.913 22.429 23.0087 23.1114 22.8263C23.7939 22.6438 24.376 22.198 24.7301 21.5867L25.0234 21.0667C25.3764 20.4548 25.4722 19.7278 25.2897 19.0453C25.1072 18.3629 24.6614 17.7807 24.0501 17.4267L23.8501 17.32C23.4432 17.0851 23.1055 16.7468 22.8714 16.3393C22.6372 15.9319 22.5149 15.4699 22.5168 15V14.3333C22.5149 13.8634 22.6372 13.4014 22.8714 12.994C23.1055 12.5866 23.4432 12.2483 23.8501 12.0133L24.0501 11.8933C24.6614 11.5393 25.1072 10.9571 25.2897 10.2747C25.4722 9.59222 25.3764 8.86525 25.0234 8.25333L24.7301 7.74667C24.376 7.13538 23.7939 6.68956 23.1114 6.50708C22.429 6.32459 21.702 6.42035 21.0901 6.77333L20.8901 6.88C20.4847 7.11405 20.0249 7.23727 19.5568 7.23727C19.0887 7.23727 18.6288 7.11405 18.2234 6.88L17.6501 6.54667C17.2451 6.31285 16.9088 5.97665 16.6747 5.57178C16.4407 5.16692 16.3173 4.70763 16.3168 4.24V4C16.3168 3.29276 16.0358 2.61448 15.5357 2.11438C15.0356 1.61428 14.3574 1.33333 13.6501 1.33333Z" stroke="var(--stroke-0, white)" stroke-width="2.66667" stroke-linecap="round" stroke-linejoin="round"/>
</svg>
