<svg preserveAspectRatio="none" width="100%" height="100%" overflow="visible" style="display: block;" viewBox="0 0 10.6669 10.6669" fill="none" xmlns="http://www.w3.org/2000/svg">
<path id="Vector" d="M7.586 1.08088C7.85122 0.815664 8.21093 0.666667 8.586 0.666667C8.96107 0.666667 9.32078 0.815664 9.586 1.08088C9.85122 1.3461 10.0002 1.70581 10.0002 2.08088C10.0002 2.45595 9.85122 2.81566 9.586 3.08088L3.57733 9.09021C3.41903 9.24838 3.22347 9.36416 3.00867 9.42688L1.09333 9.98688C1.03597 10.0036 0.975159 10.0046 0.917273 9.98978C0.859387 9.97495 0.806551 9.94484 0.764298 9.90258C0.722044 9.86033 0.691926 9.80749 0.677096 9.74961C0.662265 9.69172 0.663268 9.63091 0.68 9.57355L1.24 7.65821C1.30302 7.44358 1.41902 7.24825 1.57733 7.09021L7.586 1.08088Z" stroke="var(--stroke-0, #00A63E)" stroke-width="1.33333" stroke-linecap="round" stroke-linejoin="round"/>
</svg>
