<svg preserveAspectRatio="none" width="100%" height="100%" overflow="visible" style="display: block;" viewBox="0 0 13.3568 14.6667" fill="none" xmlns="http://www.w3.org/2000/svg">
<path id="Vector" d="M6.82506 0.666667H6.53172C6.1781 0.666667 5.83896 0.807142 5.58891 1.05719C5.33886 1.30724 5.19839 1.64638 5.19839 2V2.12C5.19815 2.35382 5.13643 2.58346 5.01941 2.78589C4.9024 2.98832 4.73421 3.15642 4.53172 3.27333L4.24506 3.44C4.04236 3.55702 3.81244 3.61863 3.57839 3.61863C3.34434 3.61863 3.11441 3.55702 2.91172 3.44L2.81172 3.38667C2.50577 3.21018 2.14228 3.1623 1.80106 3.25354C1.45983 3.34478 1.16876 3.56769 0.991722 3.87333L0.845055 4.12667C0.668564 4.43262 0.620684 4.79611 0.711927 5.13733C0.80317 5.47856 1.02608 5.76963 1.33172 5.94667L1.43172 6.01333C1.63324 6.12967 1.8008 6.29673 1.91776 6.49789C2.03471 6.69905 2.09698 6.92732 2.09839 7.16V7.5C2.09932 7.73495 2.03816 7.96597 1.92108 8.16967C1.80401 8.37338 1.63519 8.54253 1.43172 8.66L1.33172 8.72C1.02608 8.89703 0.80317 9.18811 0.711927 9.52933C0.620684 9.87056 0.668564 10.234 0.845055 10.54L0.991722 10.7933C1.16876 11.099 1.45983 11.3219 1.80106 11.4131C2.14228 11.5044 2.50577 11.4565 2.81172 11.28L2.91172 11.2267C3.11441 11.1096 3.34434 11.048 3.57839 11.048C3.81244 11.048 4.04236 11.1096 4.24506 11.2267L4.53172 11.3933C4.73421 11.5102 4.9024 11.6783 5.01941 11.8808C5.13643 12.0832 5.19815 12.3128 5.19839 12.5467V12.6667C5.19839 13.0203 5.33886 13.3594 5.58891 13.6095C5.83896 13.8595 6.1781 14 6.53172 14H6.82506C7.17868 14 7.51782 13.8595 7.76786 13.6095C8.01791 13.3594 8.15839 13.0203 8.15839 12.6667V12.5467C8.15863 12.3128 8.22035 12.0832 8.33736 11.8808C8.45438 11.6783 8.62256 11.5102 8.82506 11.3933L9.11172 11.2267C9.31441 11.1096 9.54434 11.048 9.77839 11.048C10.0124 11.048 10.2424 11.1096 10.4451 11.2267L10.5451 11.28C10.851 11.4565 11.2145 11.5044 11.5557 11.4131C11.8969 11.3219 12.188 11.099 12.3651 10.7933L12.5117 10.5333C12.6882 10.2274 12.7361 9.86389 12.6448 9.52267C12.5536 9.18144 12.3307 8.89037 12.0251 8.71333L11.9251 8.66C11.7216 8.54253 11.5528 8.37338 11.4357 8.16967C11.3186 7.96597 11.2575 7.73495 11.2584 7.5V7.16667C11.2575 6.93172 11.3186 6.7007 11.4357 6.49699C11.5528 6.29329 11.7216 6.12414 11.9251 6.00667L12.0251 5.94667C12.3307 5.76963 12.5536 5.47856 12.6448 5.13733C12.7361 4.79611 12.6882 4.43262 12.5117 4.12667L12.3651 3.87333C12.188 3.56769 11.8969 3.34478 11.5557 3.25354C11.2145 3.1623 10.851 3.21018 10.5451 3.38667L10.4451 3.44C10.2424 3.55702 10.0124 3.61863 9.77839 3.61863C9.54434 3.61863 9.31441 3.55702 9.11172 3.44L8.82506 3.27333C8.62256 3.15642 8.45438 2.98832 8.33736 2.78589C8.22035 2.58346 8.15863 2.35382 8.15839 2.12V2C8.15839 1.64638 8.01791 1.30724 7.76786 1.05719C7.51782 0.807142 7.17868 0.666667 6.82506 0.666667Z" stroke="var(--stroke-0, #4A5565)" stroke-width="1.33333" stroke-linecap="round" stroke-linejoin="round"/>
</svg>
