<svg preserveAspectRatio="none" width="100%" height="100%" overflow="visible" style="display: block;" viewBox="0 0 477.646 206.134" fill="none" xmlns="http://www.w3.org/2000/svg">
<g id="Group">
<path id="Vector" d="M3.99704 178.508C35.3068 190.323 66.6176 202.137 97.9274 202.137C129.237 202.137 160.548 3.99704 191.858 3.99704C223.168 3.99704 254.478 142.945 285.788 142.945C317.098 142.945 348.409 121.91 379.719 121.91C411.028 121.91 442.339 133.701 473.649 145.492" stroke="var(--stroke-0, #10B981)" stroke-width="1.99852"/>
<g id="Group_2">
<path id="Vector_2" d="M3.99704 181.505C5.65266 181.505 6.99482 180.163 6.99482 178.508C6.99482 176.852 5.65266 175.51 3.99704 175.51C2.34141 175.51 0.999259 176.852 0.999259 178.508C0.999259 180.163 2.34141 181.505 3.99704 181.505Z" fill="var(--fill-0, white)" stroke="var(--stroke-0, #10B981)" stroke-width="1.99852"/>
<path id="Vector_3" d="M97.9274 205.135C99.583 205.135 100.925 203.793 100.925 202.137C100.925 200.482 99.583 199.14 97.9274 199.14C96.2718 199.14 94.9296 200.482 94.9296 202.137C94.9296 203.793 96.2718 205.135 97.9274 205.135Z" fill="var(--fill-0, white)" stroke="var(--stroke-0, #10B981)" stroke-width="1.99852"/>
<path id="Vector_4" d="M191.858 6.99482C193.513 6.99482 194.856 5.65266 194.856 3.99704C194.856 2.34141 193.513 0.999259 191.858 0.999259C190.202 0.999259 188.86 2.34141 188.86 3.99704C188.86 5.65266 190.202 6.99482 191.858 6.99482Z" fill="var(--fill-0, white)" stroke="var(--stroke-0, #10B981)" stroke-width="1.99852"/>
<path id="Vector_5" d="M285.788 145.943C287.444 145.943 288.786 144.601 288.786 142.945C288.786 141.29 287.444 139.947 285.788 139.947C284.133 139.947 282.79 141.29 282.79 142.945C282.79 144.601 284.133 145.943 285.788 145.943Z" fill="var(--fill-0, white)" stroke="var(--stroke-0, #10B981)" stroke-width="1.99852"/>
<path id="Vector_6" d="M379.719 124.907C381.374 124.907 382.716 123.565 382.716 121.91C382.716 120.254 381.374 118.912 379.719 118.912C378.063 118.912 376.721 120.254 376.721 121.91C376.721 123.565 378.063 124.907 379.719 124.907Z" fill="var(--fill-0, white)" stroke="var(--stroke-0, #10B981)" stroke-width="1.99852"/>
<path id="Vector_7" d="M473.649 148.49C475.305 148.49 476.647 147.148 476.647 145.492C476.647 143.837 475.305 142.494 473.649 142.494C471.993 142.494 470.651 143.837 470.651 145.492C470.651 147.148 471.993 148.49 473.649 148.49Z" fill="var(--fill-0, white)" stroke="var(--stroke-0, #10B981)" stroke-width="1.99852"/>
</g>
</g>
</svg>
