<svg preserveAspectRatio="none" width="100%" height="100%" overflow="visible" style="display: block;" viewBox="0 0 477.646 57.7532" fill="none" xmlns="http://www.w3.org/2000/svg">
<g id="Group">
<path id="Vector" d="M3.99704 3.99703C35.3068 11.8582 66.6176 19.7184 97.9274 27.5795C129.237 35.4407 160.548 51.1621 191.858 51.1621C223.168 51.1621 254.478 32.7677 285.788 32.7677C317.098 32.7677 348.409 53.7561 379.719 53.7561C411.028 53.7561 442.339 47.8605 473.649 41.9649" stroke="var(--stroke-0, #3B82F6)" stroke-width="1.99852"/>
<g id="Group_2">
<path id="Vector_2" d="M3.99704 6.99482C5.65266 6.99482 6.99482 5.65266 6.99482 3.99704C6.99482 2.34141 5.65266 0.999259 3.99704 0.999259C2.34141 0.999259 0.999259 2.34141 0.999259 3.99704C0.999259 5.65266 2.34141 6.99482 3.99704 6.99482Z" fill="var(--fill-0, white)" stroke="var(--stroke-0, #3B82F6)" stroke-width="1.99852"/>
<path id="Vector_3" d="M97.9274 30.5773C99.583 30.5773 100.925 29.2352 100.925 27.5795C100.925 25.9239 99.583 24.5818 97.9274 24.5818C96.2718 24.5818 94.9296 25.9239 94.9296 27.5795C94.9296 29.2352 96.2718 30.5773 97.9274 30.5773Z" fill="var(--fill-0, white)" stroke="var(--stroke-0, #3B82F6)" stroke-width="1.99852"/>
<path id="Vector_4" d="M191.858 54.1599C193.513 54.1599 194.856 52.8177 194.856 51.1621C194.856 49.5064 193.513 48.1643 191.858 48.1643C190.202 48.1643 188.86 49.5064 188.86 51.1621C188.86 52.8177 190.202 54.1599 191.858 54.1599Z" fill="var(--fill-0, white)" stroke="var(--stroke-0, #3B82F6)" stroke-width="1.99852"/>
<path id="Vector_5" d="M285.788 35.7655C287.444 35.7655 288.786 34.4233 288.786 32.7677C288.786 31.1121 287.444 29.7699 285.788 29.7699C284.133 29.7699 282.79 31.1121 282.79 32.7677C282.79 34.4233 284.133 35.7655 285.788 35.7655Z" fill="var(--fill-0, white)" stroke="var(--stroke-0, #3B82F6)" stroke-width="1.99852"/>
<path id="Vector_6" d="M379.719 56.7539C381.374 56.7539 382.716 55.4118 382.716 53.7561C382.716 52.1005 381.374 50.7584 379.719 50.7584C378.063 50.7584 376.721 52.1005 376.721 53.7561C376.721 55.4118 378.063 56.7539 379.719 56.7539Z" fill="var(--fill-0, white)" stroke="var(--stroke-0, #3B82F6)" stroke-width="1.99852"/>
<path id="Vector_7" d="M473.649 44.9627C475.305 44.9627 476.647 43.6205 476.647 41.9649C476.647 40.3093 475.305 38.9671 473.649 38.9671C471.993 38.9671 470.651 40.3093 470.651 41.9649C470.651 43.6205 471.993 44.9627 473.649 44.9627Z" fill="var(--fill-0, white)" stroke="var(--stroke-0, #3B82F6)" stroke-width="1.99852"/>
</g>
</g>
</svg>
