<svg preserveAspectRatio="none" width="100%" height="100%" overflow="visible" style="display: block;" viewBox="0 0 18.3333 18.3333" fill="none" xmlns="http://www.w3.org/2000/svg">
<path id="Vector" d="M17.5 9.16667H15.4333C15.0691 9.16589 14.7147 9.28442 14.4243 9.50414C14.1338 9.72386 13.9233 10.0327 13.825 10.3833L11.8667 17.35C11.854 17.3933 11.8277 17.4313 11.7917 17.4583C11.7556 17.4854 11.7117 17.5 11.6667 17.5C11.6216 17.5 11.5777 17.4854 11.5417 17.4583C11.5056 17.4313 11.4793 17.3933 11.4667 17.35L6.86667 0.983333C6.85404 0.940059 6.82773 0.902046 6.79167 0.875C6.7556 0.847954 6.71174 0.833333 6.66667 0.833333C6.62159 0.833333 6.57773 0.847954 6.54167 0.875C6.50561 0.902046 6.47929 0.940059 6.46667 0.983333L4.50833 7.95C4.41039 8.2993 4.20115 8.6071 3.91239 8.82668C3.62362 9.04626 3.2711 9.16563 2.90833 9.16667H0.833333" stroke="var(--stroke-0, #4A5565)" stroke-width="1.66667" stroke-linecap="round" stroke-linejoin="round"/>
</svg>
